<?xml version="1.0" standalone="no"?>
<!DOCTYPE svg PUBLIC "-//W3C//DTD SVG 20010904//EN"
 "http://www.w3.org/TR/2001/REC-SVG-20010904/DTD/svg10.dtd">
<svg version="1.0" xmlns="http://www.w3.org/2000/svg"
 width="500.000000pt" height="500.000000pt" viewBox="0 0 500.000000 500.000000"
 preserveAspectRatio="xMidYMid meet">

<g transform="translate(0.000000,500.000000) scale(0.100000,-0.100000)"
fill="#000000" stroke="none">
<path d="M2360 4769 c-265 -139 -384 -201 -535 -279 -88 -46 -248 -129 -355
-185 -107 -56 -332 -173 -500 -260 -517 -269 -484 -250 -494 -282 -4 -15 -12
-36 -17 -45 -5 -10 -9 -534 -9 -1195 l1 -1178 24 -17 c22 -16 1650 -948 1968
-1127 51 -29 66 -27 139 18 35 21 393 227 796 457 403 231 750 429 770 441 20
12 51 29 67 37 17 9 53 29 80 45 28 16 64 36 80 45 32 16 47 25 108 65 28 18
37 30 37 52 0 15 4 31 10 34 13 8 13 52 0 60 -7 4 -10 397 -11 1143 -1 625 -4
1148 -8 1162 -5 19 -30 37 -96 72 -50 26 -108 57 -130 69 -22 12 -92 49 -155
82 -63 33 -146 76 -185 97 -143 76 -263 139 -370 195 -60 32 -143 75 -182 96
-190 101 -227 121 -348 184 -71 38 -217 115 -324 172 -107 57 -206 103 -220
103 -14 0 -78 -28 -141 -61z m128 -493 c-2 -277 -5 -507 -8 -510 -7 -6 -1949
-10 -1956 -4 -2 2 51 33 119 67 67 35 163 85 212 111 50 26 151 79 225 117
727 379 1165 607 1265 659 66 35 126 64 133 64 11 0 13 -91 10 -504z m148 451
c54 -29 167 -89 249 -132 83 -43 211 -110 285 -150 74 -40 194 -103 265 -140
72 -37 195 -103 275 -145 80 -42 195 -103 255 -135 457 -240 488 -258 474
-264 -8 -4 -440 -5 -961 -3 l-948 4 0 509 c0 280 1 509 3 509 2 0 48 -24 103
-53z m-186 -1013 c0 -4 -20 -43 -44 -88 -24 -45 -92 -175 -152 -291 -559
-1082 -793 -1530 -801 -1532 -6 -2 -16 11 -23 29 -13 32 -48 107 -140 303 -23
50 -55 117 -70 150 -54 118 -264 570 -332 715 -268 571 -328 701 -328 711 0 5
372 9 945 9 520 0 945 -3 945 -6z m1970 0 c0 -3 -43 -99 -96 -212 -53 -114
-105 -225 -114 -247 -10 -22 -40 -87 -68 -145 -63 -134 -134 -286 -220 -470
-16 -36 -78 -168 -137 -295 -164 -351 -180 -385 -210 -453 -15 -34 -32 -61
-37 -60 -5 2 -45 73 -89 158 -44 85 -119 229 -166 320 -47 91 -118 228 -158
305 -40 77 -131 253 -202 390 -72 138 -172 331 -223 430 -51 99 -101 194 -110
210 -10 17 -21 40 -25 53 l-6 22 930 0 c512 0 931 -3 931 -6z m65 -2312 c-2
-2 -43 12 -91 31 -49 19 -127 50 -174 67 -47 18 -98 38 -115 46 -16 7 -70 29
-120 48 -178 69 -408 165 -415 173 -4 4 9 44 30 88 21 44 86 184 145 310 59
127 125 268 147 315 22 47 53 112 68 145 15 33 43 94 63 135 19 41 49 107 67
145 18 39 51 108 72 155 22 47 85 182 141 300 55 118 116 249 136 290 l36 75
6 -1160 c3 -638 5 -1161 4 -1163z m-3921 2196 c29 -62 65 -138 79 -168 13 -30
45 -98 70 -150 24 -52 59 -126 77 -165 41 -90 67 -145 270 -580 92 -198 184
-394 203 -435 19 -41 49 -106 67 -145 18 -38 45 -98 61 -131 l27 -62 -46 -17
c-26 -9 -69 -26 -97 -37 -27 -12 -79 -31 -115 -44 -36 -12 -112 -41 -170 -63
-58 -23 -154 -60 -215 -82 -60 -22 -119 -44 -130 -49 -39 -18 -126 -50 -135
-50 -6 0 -10 418 -10 1145 0 630 3 1145 6 1145 3 0 29 -51 58 -112z m1974 61
c13 -24 68 -132 124 -239 55 -107 129 -249 163 -315 34 -66 97 -187 140 -270
43 -82 101 -195 130 -250 29 -55 94 -181 145 -280 51 -99 110 -211 130 -250
33 -62 139 -268 148 -287 2 -5 -453 -8 -1012 -8 -559 0 -1016 3 -1016 6 0 6
168 335 265 519 23 44 88 170 145 280 56 110 115 223 130 250 15 28 76 145
135 260 59 116 129 251 155 300 26 50 76 145 111 213 35 67 68 121 73 119 6
-2 21 -23 34 -48z m-973 -2107 c190 -273 498 -716 608 -875 56 -81 146 -211
200 -288 54 -77 97 -144 95 -148 -2 -5 -419 229 -928 520 -509 291 -954 545
-988 564 -35 20 -62 39 -59 41 5 5 69 30 252 99 50 19 144 55 210 80 66 25
161 61 210 80 50 19 131 49 180 68 50 19 93 33 97 31 4 -3 59 -80 123 -172z
m1905 159 c0 -9 -7 -19 -151 -227 -46 -66 -127 -182 -179 -258 -52 -75 -120
-172 -150 -216 -59 -84 -106 -152 -341 -490 -82 -118 -154 -215 -159 -215 -10
0 -22 17 -220 304 -58 83 -157 226 -220 316 -106 151 -212 304 -451 649 -49
71 -89 133 -89 137 0 5 441 9 980 9 564 0 980 -4 980 -9z m205 -46 c61 -23
182 -69 270 -102 88 -34 201 -76 250 -95 50 -19 134 -52 188 -73 54 -20 95
-41 90 -46 -13 -13 -1935 -1109 -1944 -1109 -17 0 -9 23 25 74 28 42 334 482
456 656 17 25 57 82 88 127 31 45 110 158 174 250 64 92 149 214 188 271 56
81 75 102 88 96 10 -4 67 -26 127 -49z"/>
</g>
</svg>
